<svg width="193" height="58" viewBox="0 0 193 58" fill="none" xmlns="http://www.w3.org/2000/svg">
<path d="M146.449 18.3065C144.718 17.5956 142.859 17.2556 140.989 17.3122H130.783V40.6387H136.27V34.1889H140.983C142.859 34.2353 144.718 33.8798 146.444 33.1534C147.51 32.6434 148.453 31.9119 149.221 31.0207C149.983 30.1243 150.55 29.0785 150.885 27.9555C151.214 26.8273 151.307 25.6475 151.148 24.4833C150.988 23.319 150.586 22.2063 149.963 21.2069C149.102 19.9138 147.876 18.9041 146.444 18.2962M144.456 28.7076C143.6 29.4237 142.343 29.774 140.685 29.774H136.27V21.7014H140.705C142.364 21.7014 143.621 22.0517 144.481 22.7472C144.914 23.1129 145.249 23.5766 145.47 24.0918C145.692 24.6121 145.79 25.1736 145.759 25.7351C145.79 26.2966 145.687 26.8582 145.465 27.3733C145.244 27.8885 144.909 28.3521 144.481 28.7231" fill="#FF2B7E"/>
<path d="M161.869 22.4175C160.437 22.4175 159.01 22.603 157.624 22.9636C156.341 23.283 155.131 23.829 154.054 24.5812L155.903 28.2079C156.635 27.667 157.449 27.2549 158.319 26.9818C159.236 26.683 160.2 26.5336 161.163 26.5336C162.585 26.5336 163.631 26.8427 164.316 27.4661C164.661 27.8009 164.929 28.2079 165.104 28.6561C165.274 29.1043 165.351 29.5834 165.321 30.0625V30.0986H161.173C159.633 30.047 158.103 30.2737 156.645 30.7631C155.656 31.0774 154.801 31.7059 154.208 32.5456C153.616 33.3853 153.312 34.4002 153.353 35.4253C153.343 36.4093 153.626 37.3726 154.172 38.1917C154.76 39.0418 155.574 39.7115 156.516 40.1391C157.645 40.6439 158.876 40.886 160.117 40.8551C161.477 40.9118 162.832 40.5975 164.022 39.9381C164.702 39.5106 165.259 38.9181 165.645 38.2175V40.5872H170.555V30.3716C170.555 27.6412 169.792 25.627 168.267 24.3391C166.748 23.046 164.599 22.402 161.833 22.4072M163.852 36.7699C163.116 37.1769 162.286 37.3829 161.441 37.3675C160.684 37.4087 159.932 37.2026 159.303 36.7853C159.051 36.605 158.845 36.3681 158.711 36.0899C158.572 35.8117 158.505 35.5077 158.515 35.1987C158.515 34.9153 158.572 34.632 158.69 34.3744C158.809 34.1168 158.984 33.885 159.206 33.7047C159.669 33.3029 160.514 33.1019 161.75 33.1019H165.362V34.9411C165.104 35.7138 164.568 36.3681 163.852 36.7802" fill="#FF2B7E"/>
<path d="M187.971 22.6855L182.83 34.8484L177.735 22.6855H172.346L180.156 40.7573L180.089 40.9067C179.837 41.5661 179.425 42.1534 178.894 42.6222C178.389 42.9777 177.776 43.1528 177.158 43.1219C176.612 43.1219 176.066 43.0189 175.556 42.8231C175.041 42.6274 174.562 42.3337 174.16 41.9576L172.238 45.6874C172.913 46.2335 173.696 46.6405 174.531 46.8877C175.422 47.1711 176.354 47.3205 177.292 47.3205C178.322 47.3359 179.342 47.1659 180.311 46.8208C181.269 46.455 182.119 45.8626 182.799 45.1053C183.67 44.0956 184.355 42.9416 184.813 41.6898L192.999 22.6649L187.966 22.6855H187.971Z" fill="#FF2B7E"/>
<path fill-rule="evenodd" clip-rule="evenodd" d="M115.36 39.1705C116.72 38.0269 117.394 36.5741 117.394 34.7917C117.394 32.0304 115.71 30.3458 112.341 29.7173C110.919 29.4546 109.471 29.197 108.013 28.9806C106.983 28.7076 106.468 28.1873 106.468 27.4506C106.468 26.1576 107.586 25.5291 109.837 25.5291C111.599 25.5291 113.186 26.1473 114.556 27.3888L116.848 24.9418C114.947 23.149 112.665 22.2578 109.956 22.2578C107.725 22.2578 105.958 22.7884 104.608 23.8754C103.269 24.9624 102.609 26.3224 102.609 27.9194C102.609 29.5164 103.15 30.691 104.253 31.4843C105.201 32.1386 106.762 32.628 108.972 32.9525C110.811 33.2462 111.929 33.4729 112.351 33.6274C113.077 33.9004 113.438 34.4207 113.438 35.1574C113.438 35.7962 113.113 36.3423 112.49 36.775C111.862 37.2078 111.012 37.4293 109.925 37.4293C107.988 37.4293 106.293 36.7029 104.84 35.2553L101.929 37.7332C103.83 39.8299 106.504 40.886 109.981 40.886C112.197 40.886 114.005 40.3193 115.36 39.1808V39.1705ZM96.7056 31.5616C96.7056 29.7894 96.3038 28.3882 95.5001 27.3527C94.6862 26.3224 93.6198 25.7969 92.2701 25.7969C90.9203 25.7969 89.8591 26.3173 89.04 27.363C88.2261 28.4191 87.8345 29.8101 87.8345 31.5461C87.8345 33.2822 88.2364 34.7195 89.04 35.755C89.854 36.7853 90.9203 37.3108 92.2701 37.3108C93.6198 37.3108 94.681 36.7905 95.5001 35.755C96.3038 34.7247 96.7056 33.3286 96.7056 31.5616ZM100.672 31.541C100.672 34.3692 99.8893 36.6411 98.3335 38.3669C96.7674 40.0824 94.7583 40.953 92.2804 40.953C89.8024 40.953 87.7676 40.0927 86.2272 38.3669C84.6611 36.6514 83.8884 34.3692 83.8884 31.541C83.8884 28.7128 84.6714 26.4409 86.2272 24.7357C87.7933 23.0305 89.8024 22.1702 92.2804 22.1702C94.7583 22.1702 96.8138 23.0305 98.3696 24.7357C99.8996 26.4615 100.672 28.7128 100.672 31.541ZM58.0221 40.8757H61.8704V28.9652C61.8704 26.9664 61.314 25.4106 60.227 24.3133C59.14 23.1954 57.6821 22.5411 55.8482 22.5411C51.6187 22.5411 46.9359 23.5972 46.9359 23.5972V40.8912H50.7841V26.3585C52.1235 26.0648 53.9678 25.7918 55.1321 25.8691C57.0021 26.0236 58.0118 27.3064 58.0118 29.6607L58.0221 40.8757ZM124.792 41.226C125.467 41.226 126.132 41.1385 126.76 40.9891H126.781V37.7487C126.456 37.7899 126.126 37.8157 125.792 37.8157C124.803 37.8157 124.164 37.589 123.855 37.1769C123.602 36.8523 123.463 36.1774 123.463 35.142V25.6321H126.843V22.4793H123.463V17.405H119.661V35.3841C119.661 37.5375 119.934 38.9799 120.485 39.763C121.191 40.7418 122.618 41.2312 124.792 41.2312V41.226ZM43.1443 17.3689H39.2188V40.8448H43.1443V17.3689ZM74.4455 21.1193C77.1758 21.1193 78.5565 22.5411 78.5565 25.39C78.5565 26.7139 78.1856 27.7494 77.4592 28.4861C76.7328 29.2228 75.6973 29.5834 74.3837 29.5834H69.6133V21.1038L74.4506 21.1141L74.4455 21.1193ZM80.3389 31.1855C81.7968 29.7379 82.5232 27.7958 82.5232 25.4054C82.5232 22.8966 81.7968 20.9081 80.3698 19.4811C78.9119 18.0592 76.8255 17.3277 74.1106 17.3277H65.7083V40.8036H69.6339V33.3801H74.3837C76.8822 33.3698 78.881 32.6537 80.3389 31.1855Z" fill="black"/>
<path fill-rule="evenodd" clip-rule="evenodd" d="M13.7342 29.3001C13.7342 29.3001 10.6587 30.4953 6.8671 30.4953C3.07551 30.4953 0 29.3001 0 29.3001C0 29.3001 3.07551 28.1049 6.8671 28.1049C10.6587 28.1152 13.7342 29.3001 13.7342 29.3001Z" fill="#FFCC05"/>
<path fill-rule="evenodd" clip-rule="evenodd" d="M23.2331 11.7794C23.2331 11.7794 20.5027 9.9403 18.3854 6.85448C16.2629 3.76867 15.5469 0.595276 15.5469 0.595276C15.5469 0.595276 18.2772 2.4344 20.3945 5.52022C22.5119 8.61634 23.2331 11.7794 23.2331 11.7794Z" fill="#FFCC05"/>
<path fill-rule="evenodd" clip-rule="evenodd" d="M16.2791 19.3471C16.2791 19.3471 12.9975 18.9762 9.63864 17.2298C6.29009 15.4782 4.13672 13.0106 4.13672 13.0106C4.13672 13.0106 7.4183 13.3815 10.7771 15.1279C14.136 16.8743 16.2791 19.3471 16.2791 19.3471Z" fill="#FFCC05"/>
<path fill-rule="evenodd" clip-rule="evenodd" d="M23.2331 46.7486C23.2331 46.7486 20.5027 48.5877 18.3854 51.6735C16.2681 54.7594 15.5469 57.9327 15.5469 57.9327C15.5469 57.9327 18.2772 56.0936 20.3945 53.0078C22.5119 49.922 23.2331 46.7486 23.2331 46.7486Z" fill="#FFCC05"/>
<path fill-rule="evenodd" clip-rule="evenodd" d="M16.2791 39.1912C16.2791 39.1912 12.9975 39.5621 9.63864 41.3085C6.29009 43.06 4.13672 45.5276 4.13672 45.5276C4.13672 45.5276 7.4183 45.1567 10.7771 43.4103C14.136 41.6639 16.2791 39.1912 16.2791 39.1912Z" fill="#FFCC05"/>
<path fill-rule="evenodd" clip-rule="evenodd" d="M24.2533 35.0389C26.7312 41.3754 30.6979 45.9191 37.8072 46.9958C37.0035 47.104 36.1792 47.171 35.3292 47.1813C25.263 47.2225 17.0668 39.2478 17.0255 29.367C16.9843 19.4862 25.1033 11.4342 35.1644 11.3879C36.0659 11.3879 36.9468 11.4445 37.8072 11.563C29.6676 12.5727 24.243 18.8886 23.1663 26.9303C22.816 31.8346 28.5239 33.4831 28.5239 33.4831C28.5239 33.4831 26.1954 35.0029 24.2533 35.0389Z" fill="#FFCC05"/>
</svg>
