<?xml version="1.0" encoding="utf-8"?>
<!-- Generator: Adobe Illustrator 24.1.3, SVG Export Plug-In . SVG Version: 6.00 Build 0)  -->
<svg version="1.1" id="Warstwa_1" xmlns="http://www.w3.org/2000/svg" xmlns:xlink="http://www.w3.org/1999/xlink" x="0px" y="0px"
	 viewBox="0 0 85.04 56.69" style="enable-background:new 0 0 85.04 56.69;" xml:space="preserve">
<style type="text/css">
	.st0{fill:#404042;}
	.st1{fill:#FFFFFF;}
	.st2{fill:#FECA09;}
</style>
<g>
	<g>
		<rect x="3.94" y="28.23" class="st0" width="76.52" height="24.89"/>
		<polygon class="st1" points="17.43,42.08 15.1,44.46 15.1,48.21 12.39,48.21 12.39,33.56 15.1,33.56 15.1,41.07 22.35,33.56 
			25.4,33.56 19.25,40.11 25.78,48.21 22.6,48.21 		"/>
		<path class="st1" d="M37.67,37.03v11.18h-2.49v-1.42c-0.84,1.03-2.16,1.57-3.6,1.57c-2.87,0-4.81-1.57-4.81-4.94v-6.38h2.62v6.03
			c0,2.03,0.96,2.99,2.62,2.99c1.82,0,3.06-1.13,3.06-3.37v-5.65H37.67z"/>
		<path class="st1" d="M46.98,36.91v2.49c-0.23-0.04-0.42-0.06-0.61-0.06c-1.99,0-3.24,1.17-3.24,3.45v5.42h-2.61V37.03H43v1.63
			C43.75,37.49,45.11,36.91,46.98,36.91"/>
		<path class="st1" d="M49.06,33.62c0-0.88,0.71-1.57,1.67-1.57c0.96,0,1.67,0.65,1.67,1.51c0,0.92-0.69,1.63-1.67,1.63
			C49.77,35.19,49.06,34.5,49.06,33.62 M49.41,37.03h2.62v11.18h-2.62V37.03z"/>
		<path class="st1" d="M65.45,43.46h-8.77c0.31,1.63,1.67,2.68,3.62,2.68c1.26,0,2.24-0.4,3.04-1.21l1.4,1.61
			c-1,1.19-2.57,1.82-4.5,1.82c-3.75,0-6.17-2.41-6.17-5.74s2.45-5.71,5.78-5.71c3.26,0,5.65,2.28,5.65,5.78
			C65.49,42.89,65.47,43.21,65.45,43.46 M56.66,41.72H63C62.79,40.11,61.56,39,59.84,39C58.14,39,56.91,40.09,56.66,41.72"/>
		<path class="st1" d="M73.97,36.91v2.49c-0.23-0.04-0.42-0.06-0.61-0.06c-1.99,0-3.24,1.17-3.24,3.45v5.42h-2.61V37.03H70v1.63
			C70.75,37.49,72.11,36.91,73.97,36.91"/>
	</g>
	<g>
		<rect x="3.94" y="3.34" class="st2" width="67.26" height="24.89"/>
		<path class="st0" d="M24.79,23.38h-2.43v-7.01c0-1.47-0.65-2.27-1.83-2.36c-0.73-0.06-1.9,0.12-2.74,0.31v9.06h-2.43V12.58
			c0,0,2.96-0.66,5.63-0.66c1.16,0,2.08,0.42,2.77,1.11s1.04,1.66,1.04,2.9V23.38z"/>
		<path class="st0" d="M65.82,23.45c-0.4,0.1-0.81,0.15-1.24,0.15c-1.37,0-2.28-0.31-2.72-0.92c-0.35-0.48-0.53-1.39-0.53-2.73V8.72
			h2.4v3.17h2.13v1.97h-2.13v5.94c0,0.64,0.08,1.07,0.24,1.27c0.19,0.26,0.6,0.39,1.23,0.39c0.18,0,0.38-0.02,0.62-0.05V23.45z"/>
		<rect x="10.46" y="8.71" class="st0" width="2.48" height="14.66"/>
		<path class="st0" d="M35.33,13.72c0-1.78-0.87-2.66-2.6-2.66h-3.06v5.29h3.02c0.83,0,1.48-0.23,1.94-0.69
			C35.1,15.19,35.33,14.55,35.33,13.72 M37.84,13.72c0,1.5-0.47,2.7-1.39,3.62c-0.93,0.91-2.18,1.36-3.77,1.36h-3.01v4.63h-2.48
			V8.67h5.31c1.72,0,3.04,0.45,3.96,1.34C37.38,10.91,37.84,12.14,37.84,13.72"/>
		<path class="st0" d="M46.81,17.57c0-1.1-0.26-1.98-0.77-2.62c-0.51-0.65-1.19-0.97-2.04-0.97s-1.52,0.33-2.04,0.98
			c-0.51,0.66-0.76,1.52-0.76,2.61c0,1.1,0.25,1.98,0.76,2.63c0.51,0.65,1.19,0.97,2.04,0.97s1.52-0.32,2.04-0.97
			C46.55,19.55,46.81,18.67,46.81,17.57 M49.32,17.56c0,1.76-0.49,3.18-1.48,4.26c-0.99,1.08-2.26,1.61-3.83,1.61
			c-1.57,0-2.85-0.54-3.83-1.61c-0.99-1.08-1.48-2.5-1.48-4.26c0-1.76,0.49-3.18,1.48-4.25c0.99-1.07,2.27-1.61,3.83-1.61
			c1.59,0,2.87,0.54,3.85,1.61C48.83,14.38,49.32,15.79,49.32,17.56"/>
		<path class="st0" d="M59.89,19.59c0,1.11-0.43,2.02-1.29,2.73c-0.86,0.72-1.99,1.07-3.4,1.07c-2.19,0-3.89-0.65-5.09-1.96
			l1.85-1.55c0.92,0.9,1.99,1.35,3.22,1.35c0.68,0,1.22-0.13,1.62-0.4c0.4-0.27,0.6-0.61,0.6-1.02c0-0.47-0.23-0.79-0.69-0.96
			c-0.27-0.1-0.98-0.24-2.14-0.42c-1.39-0.2-2.39-0.51-2.98-0.92c-0.7-0.49-1.04-1.24-1.04-2.23c0-1,0.42-1.84,1.27-2.52
			c0.85-0.67,1.97-1.01,3.38-1.01c1.7,0,3.16,0.56,4.35,1.68l-1.44,1.53c-0.88-0.77-1.87-1.16-2.98-1.16c-1.42,0-2.13,0.4-2.13,1.2
			c0,0.47,0.33,0.78,0.98,0.96c0.92,0.15,1.83,0.3,2.74,0.46C58.83,16.81,59.89,17.87,59.89,19.59"/>
	</g>
</g>
</svg>
