<svg id="Warstwa_1" data-name="Warstwa 1" xmlns="http://www.w3.org/2000/svg" viewBox="0 0 214.1 20"><defs><style>.cls-1{fill:#683a88;}.cls-2{fill:#fff;}.cls-3{fill:#ffcb04;}.cls-4{fill:#404041;}</style></defs><rect class="cls-1" x="54.22" width="159.88" height="20"/><path class="cls-2" d="M71.14,8.79c0,2.23-1.65,3.6-4.31,3.6H64.55v2.92H62.66V5.19h4.17c2.66,0,4.31,1.36,4.31,3.6m-1.89,0c0-1.27-.86-2-2.51-2H64.55v4h2.19c1.65,0,2.51-.74,2.51-2"/><path class="cls-2" d="M79.24,10.79v4.52H77.53v-.94a2.72,2.72,0,0,1-2.43,1.05c-1.76,0-2.87-1-2.87-2.32s.86-2.3,3.21-2.3h2v-.11C77.43,9.63,76.8,9,75.51,9a3.86,3.86,0,0,0-2.34.76l-.71-1.31a5.39,5.39,0,0,1,3.27-1c2.22,0,3.51,1.06,3.51,3.29M77.43,12.9V12H75.57c-1.23,0-1.57.47-1.57,1s.55,1.07,1.48,1.07a2,2,0,0,0,2-1.2"/><path class="cls-2" d="M81,11.45A3.91,3.91,0,0,1,85.17,7.5a3.46,3.46,0,0,1,3.3,1.8l-1.39.81A2.18,2.18,0,0,0,85.16,9a2.27,2.27,0,0,0-2.35,2.41,2.27,2.27,0,0,0,2.35,2.42,2.18,2.18,0,0,0,1.92-1.07l1.39.81a3.5,3.5,0,0,1-3.3,1.81,3.92,3.92,0,0,1-4.18-4"/><polygon class="cls-2" points="95.99 13.87 95.99 15.31 89.32 15.31 89.32 14.17 93.56 9.04 89.41 9.04 89.41 7.59 95.88 7.59 95.88 8.73 91.62 13.87 95.99 13.87"/><polygon class="cls-2" points="100.81 12 99.46 13.28 99.46 15.31 97.65 15.31 97.65 4.58 99.46 4.58 99.46 11.06 103.21 7.59 105.38 7.59 102.15 10.83 105.68 15.31 103.48 15.31 100.81 12"/><path class="cls-2" d="M113.18,10.79v4.52h-1.71v-.94A2.75,2.75,0,0,1,109,15.42c-1.77,0-2.88-1-2.88-2.32s.87-2.3,3.21-2.3h2v-.11c0-1.06-.64-1.68-1.93-1.68a3.86,3.86,0,0,0-2.34.76l-.71-1.31a5.39,5.39,0,0,1,3.27-1c2.23,0,3.52,1.06,3.52,3.29m-1.81,2.11V12H109.5c-1.23,0-1.56.47-1.56,1s.55,1.07,1.47,1.07a2,2,0,0,0,2-1.2"/><polygon class="cls-2" points="131.53 7.59 128.68 15.31 126.94 15.31 124.95 9.99 122.92 15.31 121.19 15.31 118.35 7.59 120.06 7.59 122.1 13.29 124.22 7.59 125.74 7.59 127.83 13.32 129.93 7.59 131.53 7.59"/><polygon class="cls-2" points="151.74 5.19 148.38 15.31 146.38 15.31 143.88 7.82 141.34 15.31 139.32 15.31 135.97 5.19 137.92 5.19 140.44 12.88 143.06 5.19 144.79 5.19 147.35 12.93 149.94 5.19 151.74 5.19"/><path class="cls-2" d="M159.75,12h-6.06a2.32,2.32,0,0,0,2.5,1.85,2.75,2.75,0,0,0,2.1-.84l1,1.12a4.34,4.34,0,0,1-7.38-2.71,3.84,3.84,0,0,1,4-3.95,3.77,3.77,0,0,1,3.91,4c0,.14,0,.36,0,.53m-6.08-1.2h4.39A2.11,2.11,0,0,0,155.87,9a2.14,2.14,0,0,0-2.2,1.88"/><path class="cls-2" d="M168.75,12h-6.07a2.34,2.34,0,0,0,2.51,1.85,2.71,2.71,0,0,0,2.09-.84l1,1.12a4.33,4.33,0,0,1-7.37-2.71,3.84,3.84,0,0,1,4-3.95,3.77,3.77,0,0,1,3.91,4c0,.14,0,.36,0,.53m-6.08-1.2h4.38A2.1,2.1,0,0,0,164.87,9a2.13,2.13,0,0,0-2.2,1.88"/><polygon class="cls-2" points="173.66 12 172.32 13.28 172.32 15.31 170.51 15.31 170.51 4.58 172.32 4.58 172.32 11.06 176.06 7.59 178.23 7.59 175.01 10.83 178.54 15.31 176.34 15.31 173.66 12"/><path class="cls-2" d="M186.62,12h-6.06a2.34,2.34,0,0,0,2.5,1.85,2.75,2.75,0,0,0,2.1-.84l1,1.12a4.34,4.34,0,0,1-7.38-2.71,3.85,3.85,0,0,1,4-3.95,3.77,3.77,0,0,1,3.9,4,5.13,5.13,0,0,1,0,.53m-6.07-1.2h4.38A2.1,2.1,0,0,0,182.75,9a2.13,2.13,0,0,0-2.2,1.88"/><path class="cls-2" d="M196,10.89v4.42h-1.81V11.12c0-1.38-.68-2-1.84-2a2,2,0,0,0-2.15,2.33v3.9h-1.81V7.59h1.72v1a3.35,3.35,0,0,1,2.66-1.09A3,3,0,0,1,196,10.89"/><path class="cls-2" d="M205.93,4.58V15.32H204.2v-1a3.22,3.22,0,0,1-2.56,1.1,3.76,3.76,0,0,1-3.91-4,3.75,3.75,0,0,1,3.91-3.95,3.17,3.17,0,0,1,2.48,1v-4Zm-1.78,6.87a2.3,2.3,0,1,0-4.6,0,2.3,2.3,0,1,0,4.6,0"/><rect class="cls-3" width="54.05" height="20"/><path class="cls-4" d="M16.76,16.1h-2V10.47c0-1.18-.52-1.82-1.47-1.9a9.17,9.17,0,0,0-2.2.25V16.1h-2V7.43A24.39,24.39,0,0,1,13.7,6.9a3,3,0,0,1,2.22.89,3.12,3.12,0,0,1,.84,2.33Z"/><path class="cls-4" d="M49.73,16.16a3.66,3.66,0,0,1-1,.13,2.57,2.57,0,0,1-2.18-.74,3.93,3.93,0,0,1-.43-2.2v-9h1.93V6.88h1.71V8.46H48.05v4.77a1.77,1.77,0,0,0,.2,1,1.17,1.17,0,0,0,1,.32c.14,0,.31,0,.5,0Z"/><rect class="cls-4" x="5.24" y="4.32" width="1.99" height="11.78"/><path class="cls-4" d="M25.23,8.34A1.87,1.87,0,0,0,23.14,6.2H20.68v4.25h2.43a2.14,2.14,0,0,0,1.56-.56,2.09,2.09,0,0,0,.56-1.55m2,0a3.93,3.93,0,0,1-1.12,2.91,4.16,4.16,0,0,1-3,1.09H20.68v3.72h-2V4.28H23a4.37,4.37,0,0,1,3.18,1.08,4,4,0,0,1,1.11,3"/><path class="cls-4" d="M34.46,11.43a3.33,3.33,0,0,0-.62-2.11,2.11,2.11,0,0,0-3.27,0,3.34,3.34,0,0,0-.62,2.1,3.31,3.31,0,0,0,.62,2.11,2.1,2.1,0,0,0,3.27,0,3.31,3.31,0,0,0,.62-2.11m2,0a4.85,4.85,0,0,1-1.19,3.42,4.3,4.3,0,0,1-6.16,0,4.89,4.89,0,0,1-1.19-3.42A4.86,4.86,0,0,1,29.12,8a4.33,4.33,0,0,1,6.17,0,4.85,4.85,0,0,1,1.18,3.42"/><path class="cls-4" d="M45,13.06a2.71,2.71,0,0,1-1,2.19,4.1,4.1,0,0,1-2.73.86,5.26,5.26,0,0,1-4.1-1.58l1.49-1.24a3.58,3.58,0,0,0,2.59,1.08,2.26,2.26,0,0,0,1.3-.32,1,1,0,0,0,.49-.82.78.78,0,0,0-.56-.77,12.42,12.42,0,0,0-1.72-.33,5.94,5.94,0,0,1-2.39-.74,2.06,2.06,0,0,1-.84-1.79,2.51,2.51,0,0,1,1-2,4.24,4.24,0,0,1,2.72-.81,5,5,0,0,1,3.5,1.35L43.54,9.34a3.51,3.51,0,0,0-2.4-.93q-1.71,0-1.71,1c0,.38.26.63.78.77l2.2.37Q45,11,45,13.06"/></svg>