<svg id="Warstwa_1" data-name="Warstwa 1" xmlns="http://www.w3.org/2000/svg" viewBox="0 0 79.61 30"><defs><style>.cls-1{fill:#ffcb04;}.cls-2{fill:#404041;}.cls-3{fill:#683a88;}.cls-4{fill:#fff;}</style></defs><rect class="cls-1" width="55.24" height="20.44"/><path class="cls-2" d="M17.12,16.46h-2V10.7c0-1.21-.53-1.86-1.5-1.94A9.1,9.1,0,0,0,11.37,9v7.44h-2V7.59A25.11,25.11,0,0,1,14,7.05,3.09,3.09,0,0,1,16.27,8a3.21,3.21,0,0,1,.85,2.38Z"/><path class="cls-2" d="M50.82,16.52a4.31,4.31,0,0,1-1,.12,2.62,2.62,0,0,1-2.23-.75,4,4,0,0,1-.44-2.24V4.42h2V7h1.74V8.64H49.11v4.88a1.74,1.74,0,0,0,.2,1,1.21,1.21,0,0,0,1,.33c.15,0,.32,0,.51,0Z"/><rect class="cls-2" x="5.36" y="4.41" width="2.04" height="12.04"/><path class="cls-2" d="M25.78,8.52a1.91,1.91,0,0,0-2.13-2.19H21.14v4.35h2.47a2.17,2.17,0,0,0,1.6-.57,2.13,2.13,0,0,0,.57-1.59m2.06,0a4,4,0,0,1-1.14,3,4.2,4.2,0,0,1-3.09,1.12H21.14v3.81h-2v-12h4.36a4.44,4.44,0,0,1,3.25,1.1,4.07,4.07,0,0,1,1.13,3"/><path class="cls-2" d="M35.21,11.68a3.37,3.37,0,0,0-.63-2.15,2,2,0,0,0-1.67-.8,2,2,0,0,0-1.67.81,3.38,3.38,0,0,0-.63,2.14,3.39,3.39,0,0,0,.63,2.16,2.14,2.14,0,0,0,3.34,0,3.39,3.39,0,0,0,.63-2.16m2.06,0a5,5,0,0,1-1.21,3.5,4.42,4.42,0,0,1-6.3,0,5,5,0,0,1-1.22-3.5,5,5,0,0,1,1.22-3.5,4.45,4.45,0,0,1,6.31,0,5,5,0,0,1,1.2,3.5"/><path class="cls-2" d="M46,13.34a2.79,2.79,0,0,1-1.06,2.25,4.2,4.2,0,0,1-2.79.87,5.36,5.36,0,0,1-4.18-1.61l1.51-1.27a3.68,3.68,0,0,0,2.65,1.11,2.36,2.36,0,0,0,1.33-.33,1,1,0,0,0,.5-.84.8.8,0,0,0-.57-.79,13.62,13.62,0,0,0-1.75-.34,6,6,0,0,1-2.45-.75,2.11,2.11,0,0,1-.86-1.83,2.55,2.55,0,0,1,1-2.07A4.31,4.31,0,0,1,42.1,6.9a5,5,0,0,1,3.58,1.39L44.49,9.54A3.61,3.61,0,0,0,42,8.59c-1.17,0-1.75.33-1.75,1,0,.38.27.64.8.79.76.11,1.51.24,2.25.37,1.74.32,2.61,1.19,2.61,2.6"/><rect class="cls-3" y="20.44" width="79.61" height="9.56"/><path class="cls-4" d="M9.41,24.64c0,1.07-.79,1.72-2.06,1.72H6.26v1.4h-.9V22.92h2c1.27,0,2.06.65,2.06,1.72m-.91,0c0-.61-.4-1-1.19-1h-1V25.6h1c.79,0,1.19-.35,1.19-1"/><path class="cls-4" d="M13.28,25.6v2.16h-.81v-.45a1.31,1.31,0,0,1-1.16.5c-.85,0-1.38-.46-1.38-1.11s.41-1.1,1.53-1.1h1v-.05c0-.51-.31-.81-.92-.81a1.81,1.81,0,0,0-1.12.37L10,24.48A2.62,2.62,0,0,1,11.6,24c1.07,0,1.68.5,1.68,1.57m-.86,1v-.43h-.89c-.59,0-.75.22-.75.49s.26.51.7.51a.94.94,0,0,0,.94-.57"/><path class="cls-4" d="M14.12,25.91a1.87,1.87,0,0,1,2-1.88,1.64,1.64,0,0,1,1.57.85l-.66.39a1,1,0,0,0-.92-.51,1.16,1.16,0,0,0,0,2.31,1,1,0,0,0,.92-.51l.66.38a1.66,1.66,0,0,1-1.57.87,1.88,1.88,0,0,1-2-1.9"/><polygon class="cls-4" points="21.29 27.07 21.29 27.76 18.1 27.76 18.1 27.21 20.13 24.76 18.14 24.76 18.14 24.07 21.23 24.07 21.23 24.61 19.2 27.07 21.29 27.07"/><polygon class="cls-4" points="23.59 26.18 22.95 26.79 22.95 27.76 22.09 27.76 22.09 22.63 22.95 22.63 22.95 25.73 24.74 24.07 25.78 24.07 24.23 25.62 25.92 27.76 24.87 27.76 23.59 26.18"/><path class="cls-4" d="M29.5,25.6v2.16h-.81v-.45a1.31,1.31,0,0,1-1.16.5c-.85,0-1.38-.46-1.38-1.11s.42-1.1,1.54-1.1h.95v-.05c0-.51-.3-.81-.92-.81a1.84,1.84,0,0,0-1.12.37l-.34-.63A2.64,2.64,0,0,1,27.82,24c1.07,0,1.68.5,1.68,1.57m-.86,1v-.43h-.89c-.59,0-.75.22-.75.49s.26.51.71.51a.94.94,0,0,0,.93-.57"/><polygon class="cls-4" points="38.28 24.07 36.92 27.76 36.09 27.76 35.13 25.21 34.16 27.76 33.34 27.76 31.98 24.07 32.8 24.07 33.77 26.79 34.79 24.07 35.51 24.07 36.51 26.81 37.51 24.07 38.28 24.07"/><polygon class="cls-4" points="47.94 22.92 46.34 27.76 45.38 27.76 44.18 24.18 42.97 27.76 42.01 27.76 40.4 22.92 41.34 22.92 42.54 26.6 43.79 22.92 44.62 22.92 45.84 26.62 47.08 22.92 47.94 22.92"/><path class="cls-4" d="M51.77,26.19h-2.9a1.12,1.12,0,0,0,1.2.89,1.33,1.33,0,0,0,1-.41l.46.54A2.07,2.07,0,0,1,48,25.91,1.83,1.83,0,0,1,49.92,24a1.79,1.79,0,0,1,1.86,1.9,2.35,2.35,0,0,1,0,.26m-2.91-.57H51a1,1,0,0,0-1-.9,1,1,0,0,0-1.06.9"/><path class="cls-4" d="M56.07,26.19h-2.9a1.13,1.13,0,0,0,1.2.89,1.33,1.33,0,0,0,1-.41l.47.54a1.91,1.91,0,0,1-1.49.6,1.88,1.88,0,0,1-2-1.9A1.83,1.83,0,0,1,54.22,24a1.79,1.79,0,0,1,1.86,1.9,2.35,2.35,0,0,1,0,.26m-2.9-.57h2.09a1,1,0,0,0-1-.9,1,1,0,0,0-1,.9"/><polygon class="cls-4" points="58.42 26.18 57.78 26.79 57.78 27.76 56.91 27.76 56.91 22.63 57.78 22.63 57.78 25.73 59.57 24.07 60.61 24.07 59.06 25.62 60.75 27.76 59.7 27.76 58.42 26.18"/><path class="cls-4" d="M64.62,26.19h-2.9a1.12,1.12,0,0,0,1.2.89,1.33,1.33,0,0,0,1-.41l.46.54a2.08,2.08,0,0,1-3.53-1.3A1.83,1.83,0,0,1,62.76,24a1.8,1.8,0,0,1,1.87,1.9c0,.07,0,.18,0,.26m-2.91-.57h2.1a1,1,0,0,0-1.05-.9,1,1,0,0,0-1,.9"/><path class="cls-4" d="M69.1,25.64v2.12h-.87v-2c0-.65-.32-1-.88-1a1,1,0,0,0-1,1.11v1.87h-.86V24.07h.82v.47A1.66,1.66,0,0,1,67.56,24a1.44,1.44,0,0,1,1.54,1.61"/><path class="cls-4" d="M73.85,22.63v5.13H73v-.48a1.51,1.51,0,0,1-1.23.53,1.89,1.89,0,0,1,0-3.78,1.5,1.5,0,0,1,1.19.49V22.63ZM73,25.91a1.1,1.1,0,1,0-1.1,1.16A1.08,1.08,0,0,0,73,25.91"/></svg>